<svg width="219" height="408" viewBox="0 0 219 408" fill="none" xmlns="http://www.w3.org/2000/svg">
<path d="M218.978 104.188H216.575V38.196C216.575 28.0658 212.561 18.3505 205.415 11.1874C198.269 4.02422 188.578 5.01548e-06 178.473 0H38.9976C28.8923 0 19.2008 4.02421 12.0552 11.1874C4.90967 18.3505 0.895325 28.0658 0.895325 38.196V400.241C0.895328 410.371 4.90967 420.086 12.0552 427.249C19.2008 434.413 28.8923 438.437 38.9976 438.437H178.473C188.578 438.437 198.269 434.412 205.415 427.249C212.56 420.086 216.574 410.371 216.574 400.241V151.163H218.977L218.978 104.188Z" fill="#F4F4F4"/>
</svg>
