<svg width="116" height="19" viewBox="0 0 116 19" fill="none" xmlns="http://www.w3.org/2000/svg">
<path d="M20.2706 7.15765C20.2007 6.94804 20.0146 6.79529 19.7906 6.76364L13.4975 5.87345L10.6831 0.322507C10.5829 0.124902 10.3761 -0.000183105 10.1498 -0.000183105C9.9234 -0.000183105 9.71667 0.124902 9.61648 0.322507L6.80193 5.87345L0.508953 6.76364C0.28498 6.79529 0.0988316 6.94805 0.0288921 7.15761C-0.0410871 7.36722 0.0172752 7.59728 0.179397 7.75108L4.73292 12.0719L3.65814 18.1731C3.61984 18.3903 3.71158 18.6097 3.89472 18.7393C3.99832 18.8125 4.12103 18.8498 4.24434 18.8498C4.33902 18.8498 4.43401 18.8279 4.521 18.7833L10.1497 15.9027L15.7783 18.7833C15.9787 18.8858 16.2214 18.8688 16.4046 18.7392C16.5877 18.6097 16.6795 18.3902 16.6412 18.173L15.5661 12.0719L20.1201 7.75104C20.2822 7.59728 20.3406 7.36722 20.2706 7.15765Z" fill="#FFCA56"/>
<path d="M44.1956 7.15765C44.1257 6.94804 43.9396 6.79529 43.7156 6.76364L37.4225 5.87345L34.6081 0.322507C34.508 0.124902 34.3012 -0.000183105 34.0748 -0.000183105C33.8484 -0.000183105 33.6417 0.124902 33.5415 0.322507L30.727 5.87345L24.434 6.76364C24.21 6.79529 24.0239 6.94805 23.9539 7.15761C23.884 7.36722 23.9423 7.59728 24.1044 7.75108L28.658 12.0719L27.5832 18.1731C27.5449 18.3903 27.6366 18.6097 27.8198 18.7393C27.9234 18.8125 28.0461 18.8498 28.1694 18.8498C28.2641 18.8498 28.3591 18.8279 28.446 18.7833L34.0748 15.9027L39.7033 18.7833C39.9037 18.8858 40.1465 18.8688 40.3296 18.7392C40.5128 18.6097 40.6045 18.3902 40.5663 18.173L39.4911 12.0719L44.0452 7.75104C44.2073 7.59728 44.2657 7.36722 44.1956 7.15765Z" fill="#FFCA56"/>
<path d="M68.1206 7.15765C68.0506 6.94804 67.8646 6.79529 67.6406 6.76364L61.3475 5.87345L58.533 0.322507C58.4329 0.124902 58.2261 -0.000183105 57.9998 -0.000183105C57.7734 -0.000183105 57.5666 0.124902 57.4665 0.322507L54.6519 5.87345L48.3589 6.76364C48.135 6.79529 47.9488 6.94805 47.8789 7.15761C47.8089 7.36722 47.8673 7.59728 48.0294 7.75108L52.5829 12.0719L51.5081 18.1731C51.4698 18.3903 51.5616 18.6097 51.7447 18.7393C51.8483 18.8125 51.971 18.8498 52.0943 18.8498C52.189 18.8498 52.284 18.8279 52.371 18.7833L57.9997 15.9027L63.6282 18.7833C63.8287 18.8858 64.0714 18.8688 64.2546 18.7392C64.4377 18.6097 64.5295 18.3902 64.4912 18.173L63.4161 12.0719L67.9701 7.75104C68.1322 7.59728 68.1906 7.36722 68.1206 7.15765Z" fill="#FFCA56"/>
<path d="M92.0456 7.15765C91.9757 6.94804 91.7896 6.79529 91.5656 6.76364L85.2725 5.87345L82.4581 0.322507C82.3579 0.124902 82.1512 -0.000183105 81.9248 -0.000183105C81.6984 -0.000183105 81.4917 0.124902 81.3915 0.322507L78.577 5.87345L72.284 6.76364C72.06 6.79529 71.8739 6.94805 71.8039 7.15761C71.7339 7.36722 71.7923 7.59728 71.9544 7.75108L76.5079 12.0719L75.4332 18.1731C75.3949 18.3903 75.4866 18.6097 75.6697 18.7393C75.7733 18.8125 75.8961 18.8498 76.0194 18.8498C76.114 18.8498 76.209 18.8279 76.296 18.7833L81.9248 15.9027L87.5533 18.7833C87.7537 18.8858 87.9965 18.8688 88.1796 18.7392C88.3627 18.6097 88.4545 18.3902 88.4163 18.173L87.3411 12.0719L91.8952 7.75104C92.0572 7.59728 92.1156 7.36722 92.0456 7.15765Z" fill="#FFCA56"/>
<path d="M115.971 7.15765C115.901 6.94804 115.715 6.79529 115.491 6.76364L109.197 5.87345L106.383 0.322507C106.283 0.124902 106.076 -0.000183105 105.85 -0.000183105C105.623 -0.000183105 105.417 0.124902 105.316 0.322507L102.502 5.87345L96.2089 6.76364C95.9849 6.79529 95.7988 6.94805 95.7288 7.15761C95.6589 7.36722 95.7172 7.59728 95.8793 7.75108L100.433 12.0719L99.3581 18.1731C99.3198 18.3903 99.4115 18.6097 99.5947 18.7393C99.6983 18.8125 99.821 18.8498 99.9443 18.8498C100.039 18.8498 100.134 18.8279 100.221 18.7833L105.85 15.9027L111.478 18.7833C111.679 18.8858 111.921 18.8688 112.105 18.7392C112.288 18.6097 112.379 18.3902 112.341 18.173L111.266 12.0719L115.82 7.75104C115.982 7.59728 116.041 7.36722 115.971 7.15765Z" fill="#FFCA56"/>
</svg>
